<svg xmlns="http://www.w3.org/2000/svg" version="1.1" xmlns:xlink="http://www.w3.org/1999/xlink" width="51" height="28"><svg xmlns="http://www.w3.org/2000/svg" version="1.1" xmlns:xlink="http://www.w3.org/1999/xlink" width="51" height="28"><svg width="51" height="28" viewBox="0 0 51 28" fill="none" xmlns="http://www.w3.org/2000/svg">
<path d="M34.7597 17.0853H36.5271C36.5271 16.1092 35.7358 15.3178 34.7597 15.3178V17.0853ZM34.7597 10.0155V11.7829C35.7358 11.7829 36.5271 10.9916 36.5271 10.0155H34.7597ZM15.907 17.0853V15.3178C14.9309 15.3178 14.1395 16.1092 14.1395 17.0853H15.907ZM15.907 10.0155H14.1395C14.1395 10.9916 14.9309 11.7829 15.907 11.7829V10.0155ZM47.1318 8.83721V18.2636H50.6667V8.83721H47.1318ZM41.8295 23.5659C40.7073 23.5659 39.9541 23.565 39.3708 23.5251C38.8036 23.4865 38.5274 23.417 38.3455 23.3415L36.9928 26.6075C37.6772 26.891 38.3829 27.0009 39.1302 27.0518C39.8617 27.1017 40.7556 27.1008 41.8295 27.1008V23.5659ZM32.9923 17.0853C32.9923 18.1717 32.9918 19.3346 33.0392 20.3364C33.0627 20.8389 33.0995 21.3304 33.1598 21.7723C33.2166 22.1882 33.3083 22.6718 33.4855 23.1002L36.7515 21.7476C36.7557 21.7579 36.743 21.7285 36.7225 21.6401C36.7032 21.5555 36.6824 21.4414 36.6622 21.2939C36.6216 20.9965 36.5912 20.6195 36.57 20.17C36.5276 19.2682 36.5271 18.195 36.5271 17.0853H32.9923ZM38.3455 23.3415C37.6239 23.0427 37.0503 22.4691 36.7515 21.7476L33.4855 23.1002C34.1432 24.6881 35.4049 25.9498 36.9928 26.6075L38.3455 23.3415ZM47.1318 18.2636C47.1318 19.3858 47.1308 20.1389 47.091 20.7222C47.0524 21.2894 46.9828 21.5656 46.9077 21.7476L50.1734 23.1002C50.4569 22.4159 50.5668 21.7101 50.6177 20.9628C50.6676 20.2313 50.6667 19.3375 50.6667 18.2636H47.1318ZM41.8295 27.1008C42.9034 27.1008 43.7972 27.1017 44.5287 27.0518C45.276 27.0009 45.9818 26.891 46.6661 26.6075L45.3134 23.3415C45.1315 23.417 44.8553 23.4865 44.2881 23.5251C43.7048 23.565 42.9517 23.5659 41.8295 23.5659V27.1008ZM46.9077 21.7476C46.6086 22.4691 46.035 23.0427 45.3134 23.3415L46.6661 26.6075C48.254 25.9498 49.5157 24.6881 50.1734 23.1002L46.9077 21.7476ZM41.8295 3.53489C42.9517 3.53489 43.7048 3.53585 44.2881 3.57563C44.8553 3.61435 45.1315 3.6838 45.3134 3.75911L46.6661 0.493306C45.9818 0.209856 45.276 0.0999445 44.5287 0.0489479C43.7972 -0.000964687 42.9034 1.3416e-06 41.8295 1.3416e-06V3.53489ZM50.6667 8.83721C50.6667 7.76336 50.6676 6.86946 50.6177 6.13807C50.5668 5.39079 50.4569 4.68492 50.1734 4.00059L46.9077 5.35335C46.9828 5.53516 47.0524 5.81137 47.091 6.37868C47.1308 6.96186 47.1318 7.715 47.1318 8.83721H50.6667ZM45.3134 3.75911C46.035 4.0581 46.6086 4.63155 46.9077 5.35335L50.1734 4.00059C49.5157 2.41265 48.254 1.15105 46.6661 0.493306L45.3134 3.75911ZM41.8295 1.3416e-06C40.7556 1.3416e-06 39.8617 -0.000964687 39.1302 0.0489479C38.3829 0.0999445 37.6772 0.209856 36.9928 0.493306L38.3455 3.75911C38.5274 3.6838 38.8036 3.61435 39.3708 3.57563C39.9541 3.53585 40.7073 3.53489 41.8295 3.53489V1.3416e-06ZM36.5271 10.0155C36.5271 8.90579 36.5276 7.8326 36.57 6.93071C36.5912 6.48124 36.6216 6.10418 36.6622 5.8068C36.6824 5.65928 36.7032 5.54522 36.7225 5.46078C36.743 5.37227 36.7557 5.34274 36.7515 5.35335L33.4855 4.00059C33.3083 4.42886 33.2166 4.91248 33.1598 5.3286C33.0995 5.77025 33.0627 6.26193 33.0392 6.76433C32.9918 7.76614 32.9923 8.92912 32.9923 10.0155H36.5271ZM36.9928 0.493306C35.4049 1.15105 34.1432 2.41265 33.4855 4.00059L36.7515 5.35335C37.0503 4.63155 37.6239 4.0581 38.3455 3.75911L36.9928 0.493306ZM3.53489 18.2636V8.83721H1.34275e-06V18.2636H3.53489ZM8.83721 23.5659C7.715 23.5659 6.96186 23.565 6.37868 23.5251C5.81137 23.4865 5.53516 23.417 5.35335 23.3415L4.00059 26.6075C4.68492 26.891 5.39079 27.0009 6.13807 27.0518C6.86946 27.1017 7.76336 27.1008 8.83721 27.1008V23.5659ZM1.34275e-06 18.2636C1.34275e-06 19.3375 -0.000964968 20.2313 0.0489476 20.9628C0.0999442 21.7101 0.209856 22.4159 0.493306 23.1002L3.75911 21.7476C3.6838 21.5656 3.61435 21.2894 3.57563 20.7222C3.53585 20.1389 3.53489 19.3858 3.53489 18.2636H1.34275e-06ZM5.35335 23.3415C4.63155 23.0427 4.0581 22.4691 3.75911 21.7476L0.493306 23.1002C1.15105 24.6881 2.41265 25.9498 4.00059 26.6075L5.35335 23.3415ZM14.1395 17.0853C14.1395 18.195 14.1391 19.2682 14.0966 20.17C14.0755 20.6195 14.045 20.9965 14.0044 21.2939C13.9843 21.4414 13.9635 21.5555 13.9441 21.6401C13.9237 21.7285 13.9109 21.7579 13.9153 21.7476L17.1811 23.1002C17.3585 22.6718 17.45 22.1882 17.5068 21.7723C17.5671 21.3304 17.6039 20.8389 17.6276 20.3364C17.6748 19.3346 17.6744 18.1717 17.6744 17.0853H14.1395ZM8.83721 27.1008C9.91106 27.1008 10.805 27.1017 11.5364 27.0518C12.2836 27.0009 12.9895 26.891 13.6738 26.6075L12.3211 23.3415C12.1393 23.417 11.863 23.4865 11.2957 23.5251C10.7126 23.565 9.95942 23.5659 8.83721 23.5659V27.1008ZM13.9153 21.7476C13.6163 22.4691 13.0429 23.0427 12.3211 23.3415L13.6738 26.6075C15.2618 25.9498 16.5234 24.6881 17.1811 23.1002L13.9153 21.7476ZM8.83721 3.53489C9.95942 3.53489 10.7126 3.53585 11.2957 3.57563C11.863 3.61435 12.1393 3.6838 12.3211 3.75911L13.6738 0.493306C12.9895 0.209856 12.2836 0.0999445 11.5364 0.0489479C10.805 -0.000964687 9.91106 1.3416e-06 8.83721 1.3416e-06V3.53489ZM17.6744 10.0155C17.6744 8.92912 17.6748 7.76614 17.6276 6.76433C17.6039 6.26193 17.5671 5.77025 17.5068 5.3286C17.45 4.91248 17.3585 4.42886 17.1811 4.00059L13.9153 5.35335C13.9109 5.34274 13.9237 5.37227 13.9441 5.46078C13.9635 5.54522 13.9843 5.65928 14.0044 5.8068C14.045 6.10418 14.0755 6.48124 14.0966 6.93071C14.1391 7.8326 14.1395 8.90579 14.1395 10.0155H17.6744ZM12.3211 3.75911C13.0429 4.0581 13.6163 4.63155 13.9153 5.35335L17.1811 4.00059C16.5234 2.41265 15.2618 1.15105 13.6738 0.493306L12.3211 3.75911ZM8.83721 1.3416e-06C7.76336 1.3416e-06 6.86946 -0.000964687 6.13807 0.0489479C5.39079 0.0999445 4.68492 0.209856 4.00059 0.493306L5.35335 3.75911C5.53516 3.6838 5.81137 3.61435 6.37868 3.57563C6.96186 3.53585 7.715 3.53489 8.83721 3.53489V1.3416e-06ZM3.53489 8.83721C3.53489 7.715 3.53585 6.96186 3.57563 6.37868C3.61435 5.81137 3.6838 5.53516 3.75911 5.35335L0.493306 4.00059C0.209856 4.68492 0.0999442 5.39079 0.0489476 6.13807C-0.000964968 6.86946 1.34275e-06 7.76336 1.34275e-06 8.83721H3.53489ZM4.00059 0.493306C2.41265 1.15105 1.15105 2.41265 0.493306 4.00059L3.75911 5.35335C4.0581 4.63155 4.63155 4.0581 5.35335 3.75911L4.00059 0.493306ZM15.907 11.7829H34.7597V8.24806H15.907V11.7829ZM34.7597 15.3178H15.907V18.8527H34.7597V15.3178Z" fill="#155DFC"></path>
</svg></svg><style>@media (prefers-color-scheme: light) { :root { filter: none; } }
@media (prefers-color-scheme: dark) { :root { filter: none; } }
</style></svg>